<svg width="375" height="327" viewBox="0 0 375 327" fill="none" xmlns="http://www.w3.org/2000/svg">
<path d="M-216.347 178.031C-201.619 210.501 -168.147 241.011 -119.847 265.992C-71.5473 290.973 -10.4159 309.393 56.3966 319.098C123.209 328.802 192.94 329.389 257.434 320.79C321.927 312.191 378.517 294.762 420.583 270.541C462.649 246.321 488.452 216.31 494.975 184.019C501.498 151.728 488.47 118.493 457.416 88.1999C426.362 57.9071 378.565 31.8093 319.616 12.9593C260.667 -5.89067 193.004 -16.7136 124.54 -18.2435L128.417 40.527C173.548 41.5355 218.151 48.6699 257.01 61.0957C295.868 73.5214 327.375 90.7249 347.846 110.694C368.317 130.663 376.904 152.571 372.605 173.857C368.305 195.143 351.295 214.926 323.566 230.892C295.836 246.858 258.533 258.347 216.019 264.015C173.506 269.683 127.539 269.296 83.4973 262.9C39.455 256.503 -0.842353 244.36 -32.6813 227.893C-64.5203 211.425 -86.5845 191.314 -96.2931 169.91L-216.347 178.031Z" fill="#109BB9"/>
</svg>
